<svg width="119" height="19" viewBox="0 0 119 19" fill="none" xmlns="http://www.w3.org/2000/svg">
<g clip-path="url(#clip0_59_2)">
<path fill-rule="evenodd" clip-rule="evenodd" d="M9.81247 14.0546L4.04482 17.834L5.8569 11.1808L0.480225 6.86328L7.36779 6.5307L9.81247 0.0830078L12.2571 6.5307L19.1447 6.86328L13.768 11.1808L15.5801 17.834L9.81247 14.0546Z" fill="#FFC54F"/>
</g>
<g clip-path="url(#clip1_59_2)">
<path fill-rule="evenodd" clip-rule="evenodd" d="M34.4375 14.0546L28.6698 17.834L30.4819 11.1808L25.1052 6.86328L31.9928 6.5307L34.4375 0.0830078L36.8821 6.5307L43.7697 6.86328L38.393 11.1808L40.2051 17.834L34.4375 14.0546Z" fill="#FFC54F"/>
</g>
<g clip-path="url(#clip2_59_2)">
<path fill-rule="evenodd" clip-rule="evenodd" d="M59.0625 14.0546L53.2948 17.834L55.1069 11.1808L49.7302 6.86328L56.6178 6.5307L59.0625 0.0830078L61.5071 6.5307L68.3947 6.86328L63.018 11.1808L64.8301 17.834L59.0625 14.0546Z" fill="#FFC54F"/>
</g>
<g clip-path="url(#clip3_59_2)">
<path fill-rule="evenodd" clip-rule="evenodd" d="M83.6875 14.0546L77.9198 17.834L79.7319 11.1808L74.3552 6.86328L81.2428 6.5307L83.6875 0.0830078L86.1321 6.5307L93.0197 6.86328L87.643 11.1808L89.4551 17.834L83.6875 14.0546Z" fill="#FFC54F"/>
</g>
<g clip-path="url(#clip4_59_2)">
<path fill-rule="evenodd" clip-rule="evenodd" d="M108.312 14.0546L102.545 17.834L104.357 11.1808L98.9802 6.86328L105.868 6.5307L108.312 0.0830078L110.757 6.5307L117.645 6.86328L112.268 11.1808L114.08 17.834L108.312 14.0546Z" fill="#FFC54F"/>
</g>
<defs>
<clipPath id="clip0_59_2">
<rect width="19.625" height="17.9896" fill="white" transform="translate(0 0.0830078)"/>
</clipPath>
<clipPath id="clip1_59_2">
<rect width="19.625" height="17.9896" fill="white" transform="translate(24.625 0.0830078)"/>
</clipPath>
<clipPath id="clip2_59_2">
<rect width="19.625" height="17.9896" fill="white" transform="translate(49.25 0.0830078)"/>
</clipPath>
<clipPath id="clip3_59_2">
<rect width="19.625" height="17.9896" fill="white" transform="translate(73.875 0.0830078)"/>
</clipPath>
<clipPath id="clip4_59_2">
<rect width="19.625" height="17.9896" fill="white" transform="translate(98.5 0.0830078)"/>
</clipPath>
</defs>
</svg>
