<svg width="15" height="14" viewBox="0 0 15 14" fill="none" xmlns="http://www.w3.org/2000/svg">
<path d="M3.20508 1.75075C3.20488 2.14857 3.04665 2.53003 2.76521 2.81119C2.48376 3.09235 2.10215 3.2502 1.70433 3.25C1.3065 3.2498 0.925052 3.09158 0.643888 2.81013C0.362724 2.52868 0.204879 2.14707 0.205078 1.74925C0.205277 1.35143 0.363503 0.969974 0.644948 0.68881C0.926394 0.407646 1.308 0.249801 1.70583 0.25C2.10365 0.250199 2.48511 0.408425 2.76627 0.68987C3.04743 0.971316 3.20528 1.35293 3.20508 1.75075ZM3.25008 4.36075H0.250078V13.7507H3.25008V4.36075ZM7.99008 4.36075H5.00508V13.7507H7.96008V8.82325C7.96008 6.07825 11.5376 5.82325 11.5376 8.82325V13.7507H14.5001V7.80325C14.5001 3.17575 9.20508 3.34825 7.96008 5.62075L7.99008 4.36075Z" fill="#75757F"/>
</svg>
