<svg width="160" height="30" viewBox="0 0 160 30" fill="none" xmlns="http://www.w3.org/2000/svg">
<path d="M4.87552 3.29534C7.0297 1.33347 9.95479 0.188341 12.9194 0.0459087C13.9341 0.0459087 14.9517 0.0516838 15.9664 0.0429688C15.9146 1.08063 15.9664 2.12113 15.9359 3.15874C15.7927 5.47814 14.8938 7.74519 13.3795 9.56463C11.4112 12.012 8.40084 13.6541 5.20459 14.0785C3.80908 14.2935 2.39221 14.1569 0.987629 14.1947C1.01199 13.0524 0.935811 11.9073 1.03026 10.7679C1.30452 7.94285 2.70307 5.2369 4.87552 3.29534Z" fill="#81818B"/>
<path d="M16.906 0.0429688C17.9938 0.0546238 19.0816 0.0371942 20.1723 0.0487967C22.8872 0.231864 25.5655 1.2259 27.6098 2.94953C29.8645 4.79511 31.4095 7.43423 31.8054 10.2535C31.9792 11.5614 31.8694 12.8838 31.9366 14.1976C30.9859 14.1947 30.0382 14.1918 29.0875 14.1976C26.7507 14.1366 24.4533 13.4158 22.4971 12.2009C21.5953 11.5847 20.669 10.9598 19.9926 10.1053C18.5087 8.52414 17.5002 6.53901 17.1193 4.44635C16.8329 2.99305 16.9487 1.51076 16.906 0.0429688Z" fill="#81818B"/>
<path d="M0.989776 15.0293C1.95567 15.0816 2.92461 14.9857 3.88741 15.0874C8.00992 15.1717 12.0106 17.3806 14.1464 20.7435C15.3714 22.6268 16.0295 24.8592 15.9442 27.0765C15.9411 27.8037 15.9533 28.5272 15.932 29.2511C14.4024 29.207 12.8576 29.3262 11.3432 29.0443C7.97947 28.5041 4.88685 26.5942 3.0251 23.8679C1.61437 21.8857 0.910553 19.4646 0.983686 17.0725C0.983686 16.3895 0.983686 15.7094 0.989776 15.0293Z" fill="#81818B"/>
<path d="M26.7883 15.3373C28.4459 14.9855 30.1548 15.0436 31.8401 15.0436L31.9136 15.1135C31.8768 16.6335 32.0018 18.1711 31.682 19.6737C31.0085 23.0453 28.6685 26.0562 25.5209 27.7099C23.5617 28.7508 21.3131 29.2621 19.0736 29.239C18.3575 29.2422 17.6384 29.2275 16.9224 29.2474C16.9224 27.989 16.8676 26.7251 17.0169 25.472C17.3642 22.4407 19.0827 19.6185 21.5538 17.7118C23.0833 16.5609 24.881 15.7267 26.7883 15.3373Z" fill="#81818B"/>
<path d="M44.4216 23.6215C44.4216 24.1332 44.2357 24.566 43.8651 24.9204C43.5138 25.2551 43.0702 25.4224 42.5342 25.4224C42.0181 25.4224 41.585 25.2551 41.2343 24.9204C40.8836 24.566 40.7083 24.1332 40.7083 23.6215V5.3779C40.7083 4.86618 40.8836 4.44308 41.2343 4.10855C41.6055 3.75428 42.0596 3.57715 42.5962 3.57715C43.1322 3.57715 43.5653 3.75428 43.8955 4.10855C44.2462 4.44308 44.4216 4.86618 44.4216 5.3779V23.6215Z" fill="#81818B"/>
<path d="M59.3276 9.62891C59.8636 9.62891 60.3072 9.80599 60.6584 10.1603C61.0086 10.4948 61.184 10.9179 61.184 11.4296V18.9278C61.184 21.0139 60.5755 22.667 59.3585 23.8872C58.1411 25.1074 56.3876 25.7173 54.097 25.7173C51.8075 25.7173 50.0534 25.1074 48.8365 23.8872C47.64 22.667 47.0415 21.0139 47.0415 18.9278V11.4296C47.0415 10.9179 47.2169 10.4948 47.5676 10.1603C47.9183 9.80599 48.3619 9.62891 48.8984 9.62891C49.435 9.62891 49.8781 9.80599 50.2288 10.1603C50.58 10.4948 50.7554 10.9179 50.7554 11.4296V18.9278C50.7554 20.1283 51.0341 21.0237 51.5906 21.6141C52.1477 22.1849 52.9835 22.4702 54.097 22.4702C55.2326 22.4702 56.0778 22.1849 56.6354 21.6141C57.1919 21.0237 57.4706 20.1283 57.4706 18.9278V11.4296C57.4706 10.9179 57.646 10.4948 57.9967 10.1603C58.3474 9.80599 58.791 9.62891 59.3276 9.62891Z" fill="#81818B"/>
<path d="M72.3533 9.33301C74.0039 9.33301 75.2209 9.71673 76.0052 10.4843C76.7891 11.2321 77.3051 12.2063 77.5524 13.4068L77.0264 13.1411L77.2742 12.6688C77.5214 12.2161 77.9031 11.734 78.4192 11.2223C78.9347 10.6909 79.5537 10.2481 80.2756 9.89386C81.0185 9.51991 81.8438 9.33301 82.7515 9.33301C84.2372 9.33301 85.3613 9.63803 86.1246 10.2481C86.909 10.8582 87.445 11.6749 87.7337 12.6983C88.023 13.702 88.1674 14.8238 88.1674 16.0636V23.6208C88.1674 24.1325 87.992 24.5654 87.6408 24.9197C87.2901 25.2544 86.847 25.4217 86.3105 25.4217C85.7744 25.4217 85.3303 25.2544 84.9796 24.9197C84.6289 24.5654 84.4535 24.1325 84.4535 23.6208V16.0636C84.4535 15.4141 84.3711 14.8336 84.2063 14.3219C84.0409 13.7905 83.7416 13.3674 83.3085 13.0525C82.8754 12.7376 82.2564 12.5802 81.4521 12.5802C80.6678 12.5802 79.9973 12.7376 79.4403 13.0525C78.8828 13.3674 78.4601 13.7905 78.1714 14.3219C77.9031 14.8336 77.7687 15.4141 77.7687 16.0636V23.6208C77.7687 24.1325 77.5934 24.5654 77.2432 24.9197C76.8925 25.2544 76.4483 25.4217 75.9123 25.4217C75.3758 25.4217 74.9321 25.2544 74.582 24.9197C74.2307 24.5654 74.0554 24.1325 74.0554 23.6208V16.0636C74.0554 15.4141 73.973 14.8336 73.8076 14.3219C73.6427 13.7905 73.3435 13.3674 72.9104 13.0525C72.4772 12.7376 71.8577 12.5802 71.0534 12.5802C70.2696 12.5802 69.5992 12.7376 69.0416 13.0525C68.4851 13.3674 68.062 13.7905 67.7732 14.3219C67.5049 14.8336 67.3711 15.4141 67.3711 16.0636V23.6208C67.3711 24.1325 67.1957 24.5654 66.845 24.9197C66.4938 25.2544 66.0507 25.4217 65.5142 25.4217C64.9776 25.4217 64.5345 25.2544 64.1833 24.9197C63.8326 24.5654 63.6572 24.1325 63.6572 23.6208V11.4289C63.6572 10.9172 63.8326 10.4941 64.1833 10.1596C64.5345 9.8053 64.9776 9.62822 65.5142 9.62822C66.0507 9.62822 66.4938 9.8053 66.845 10.1596C67.1957 10.4941 67.3711 10.9172 67.3711 11.4289V12.6983L66.9064 12.6097C67.0923 12.2752 67.3506 11.9209 67.6803 11.547C68.0105 11.1534 68.4127 10.7893 68.8873 10.4547C69.3619 10.1202 69.8879 9.85449 70.4654 9.65767C71.0435 9.44121 71.6729 9.33301 72.3533 9.33301Z" fill="#81818B"/>
<path d="M94.1361 23.6207C94.1361 24.1324 93.9607 24.5652 93.6095 24.9196C93.2593 25.2543 92.8157 25.4216 92.2792 25.4216C91.7431 25.4216 91.299 25.2543 90.9483 24.9196C90.5981 24.5652 90.4228 24.1324 90.4228 23.6207V11.4288C90.4228 10.9171 90.5981 10.494 90.9483 10.1595C91.299 9.80518 91.7431 9.6281 92.2792 9.6281C92.8157 9.6281 93.2593 9.80518 93.6095 10.1595C93.9607 10.494 94.1361 10.9171 94.1361 11.4288V23.6207ZM92.2482 7.70922C91.5468 7.70922 91.0517 7.60102 90.7624 7.38451C90.4742 7.16805 90.3298 6.78428 90.3298 6.23324V5.67233C90.3298 5.10165 90.4847 4.71782 90.7934 4.52105C91.1236 4.30454 91.6192 4.19629 92.2792 4.19629C93.0016 4.19629 93.5071 4.30454 93.7954 4.52105C94.0846 4.73751 94.229 5.12129 94.229 5.67233V6.23324C94.229 6.80396 94.0741 7.19756 93.7644 7.41401C93.4557 7.61084 92.9496 7.70922 92.2482 7.70922Z" fill="#81818B"/>
<path d="M105.256 9.33301C106.783 9.33301 107.938 9.63803 108.722 10.2481C109.527 10.8582 110.073 11.6749 110.362 12.6983C110.672 13.702 110.826 14.8238 110.826 16.0636V23.6208C110.826 24.1325 110.651 24.5654 110.3 24.9197C109.95 25.2544 109.506 25.4217 108.969 25.4217C108.433 25.4217 107.99 25.2544 107.639 24.9197C107.288 24.5654 107.112 24.1325 107.112 23.6208V16.0636C107.112 15.4141 107.02 14.8336 106.835 14.3219C106.669 13.7905 106.36 13.3674 105.905 13.0525C105.452 12.7376 104.802 12.5802 103.956 12.5802C103.131 12.5802 102.429 12.7376 101.852 13.0525C101.295 13.3674 100.862 13.7905 100.552 14.3219C100.263 14.8336 100.118 15.4141 100.118 16.0636V23.6208C100.118 24.1325 99.9435 24.5654 99.5928 24.9197C99.2421 25.2544 98.798 25.4217 98.262 25.4217C97.7254 25.4217 97.2818 25.2544 96.9316 24.9197C96.5804 24.5654 96.405 24.1325 96.405 23.6208V11.4289C96.405 10.9172 96.5804 10.4941 96.9316 10.1596C97.2818 9.8053 97.7254 9.62822 98.262 9.62822C98.798 9.62822 99.2421 9.8053 99.5928 10.1596C99.9435 10.4941 100.118 10.9172 100.118 11.4289V12.6983L99.6548 12.6097C99.8406 12.2752 100.108 11.9209 100.459 11.547C100.81 11.1534 101.223 10.7893 101.697 10.4547C102.172 10.1202 102.708 9.85449 103.306 9.65767C103.905 9.44121 104.555 9.33301 105.256 9.33301Z" fill="#81818B"/>
<path d="M129.2 17.5396C129.2 19.1534 128.818 20.5802 128.055 21.8201C127.312 23.0403 126.301 23.9947 125.022 24.6835C123.763 25.3725 122.35 25.7166 120.782 25.7166C119.214 25.7166 117.79 25.3725 116.511 24.6835C115.253 23.9947 114.242 23.0403 113.479 21.8201C112.736 20.5802 112.365 19.1534 112.365 17.5396C112.365 15.9259 112.736 14.5089 113.479 13.2887C114.242 12.0488 115.253 11.0845 116.511 10.3957C117.79 9.68723 119.214 9.33301 120.782 9.33301C122.35 9.33301 123.763 9.68723 125.022 10.3957C126.301 11.0845 127.312 12.0488 128.055 13.2887C128.818 14.5089 129.2 15.9259 129.2 17.5396ZM125.486 17.5396C125.486 16.536 125.27 15.67 124.836 14.9418C124.423 14.194 123.856 13.6134 123.134 13.2002C122.433 12.7869 121.649 12.5802 120.782 12.5802C119.916 12.5802 119.121 12.7869 118.399 13.2002C117.697 13.6134 117.13 14.194 116.697 14.9418C116.285 15.67 116.078 16.536 116.078 17.5396C116.078 18.5237 116.285 19.3895 116.697 20.1375C117.13 20.8656 117.697 21.4363 118.399 21.8496C119.121 22.2629 119.916 22.4695 120.782 22.4695C121.649 22.4695 122.433 22.2629 123.134 21.8496C123.856 21.4363 124.423 20.8656 124.836 20.1375C125.27 19.3895 125.486 18.5237 125.486 17.5396Z" fill="#81818B"/>
<path d="M143.041 9.62891C143.577 9.62891 144.021 9.80599 144.372 10.1603C144.722 10.4948 144.898 10.9179 144.898 11.4296V18.9278C144.898 21.0139 144.289 22.667 143.072 23.8872C141.854 25.1074 140.101 25.7173 137.811 25.7173C135.521 25.7173 133.767 25.1074 132.55 23.8872C131.353 22.667 130.755 21.0139 130.755 18.9278V11.4296C130.755 10.9179 130.93 10.4948 131.281 10.1603C131.632 9.80599 132.075 9.62891 132.612 9.62891C133.148 9.62891 133.592 9.80599 133.943 10.1603C134.293 10.4948 134.469 10.9179 134.469 11.4296V18.9278C134.469 20.1283 134.747 21.0237 135.305 21.6141C135.862 22.1849 136.697 22.4702 137.811 22.4702C138.945 22.4702 139.792 22.1849 140.348 21.6141C140.906 21.0237 141.185 20.1283 141.185 18.9278V11.4296C141.185 10.9179 141.36 10.4948 141.71 10.1603C142.061 9.80599 142.505 9.62891 143.041 9.62891Z" fill="#81818B"/>
<path d="M146.411 22.9714C146.205 22.6959 146.112 22.3416 146.133 21.9086C146.154 21.4757 146.422 21.1018 146.938 20.7869C147.268 20.5901 147.618 20.5114 147.99 20.5507C148.361 20.5704 148.722 20.7475 149.073 21.0821C149.672 21.6528 150.3 22.0956 150.961 22.4105C151.621 22.7253 152.446 22.8828 153.436 22.8828C153.746 22.8631 154.086 22.8238 154.457 22.7647C154.829 22.686 155.149 22.5286 155.417 22.2924C155.705 22.0366 155.85 21.6528 155.85 21.1411C155.85 20.7082 155.695 20.3637 155.386 20.1079C155.076 19.8521 154.664 19.6356 154.148 19.4585C153.653 19.2813 153.096 19.1141 152.477 18.9566C151.837 18.7795 151.177 18.5827 150.496 18.3662C149.836 18.1498 149.227 17.8742 148.67 17.5396C148.114 17.1854 147.66 16.7229 147.309 16.1522C146.958 15.5815 146.783 14.8631 146.783 13.9972C146.783 13.0132 147.071 12.1768 147.649 11.488C148.227 10.7992 148.97 10.2678 149.877 9.89386C150.806 9.51991 151.775 9.33301 152.786 9.33301C153.426 9.33301 154.096 9.4117 154.798 9.56915C155.499 9.70691 156.17 9.94306 156.809 10.2776C157.449 10.5925 157.985 11.0156 158.419 11.547C158.645 11.8422 158.78 12.1964 158.821 12.6097C158.862 13.023 158.666 13.3969 158.233 13.7315C157.924 13.9677 157.563 14.0759 157.15 14.0562C156.738 14.0169 156.397 13.8791 156.129 13.643C155.778 13.21 155.304 12.8656 154.705 12.6097C154.127 12.3539 153.457 12.226 152.693 12.226C152.384 12.226 152.044 12.2653 151.672 12.344C151.322 12.4031 151.012 12.5507 150.744 12.7869C150.476 13.0033 150.341 13.3576 150.341 13.8496C150.341 14.3022 150.496 14.6663 150.806 14.9418C151.115 15.1977 151.528 15.4141 152.044 15.5913C152.58 15.7488 153.148 15.9062 153.746 16.0636C154.365 16.2211 154.994 16.408 155.633 16.6245C156.273 16.841 156.861 17.1263 157.397 17.4806C157.934 17.8349 158.367 18.2973 158.697 18.8681C159.028 19.4191 159.192 20.1276 159.192 20.9935C159.192 21.9972 158.883 22.8533 158.264 23.5618C157.645 24.2703 156.871 24.8114 155.943 25.1855C155.014 25.5399 154.065 25.7166 153.096 25.7166C151.879 25.7166 150.662 25.5202 149.444 25.1264C148.227 24.713 147.216 23.9947 146.411 22.9714Z" fill="#81818B"/>
</svg>
