<svg width="168" height="39" viewBox="0 0 168 39" fill="none" xmlns="http://www.w3.org/2000/svg">
<path d="M50.248 10.8008C51.8356 10.8008 53.2096 11.0563 54.3703 11.5674C55.5479 12.0784 56.452 12.8038 57.0835 13.7436C57.7151 14.6833 58.0312 15.7961 58.0312 17.082C58.0312 18.3514 57.7151 19.4642 57.0835 20.4204C56.452 21.3601 55.5479 22.0855 54.3703 22.5967C53.2096 23.0911 51.8356 23.3385 50.248 23.3385H46.6387V28.1113H42.4917V10.8008H50.248ZM50.0181 20.0742C51.2634 20.0742 52.211 19.8187 52.8594 19.3076C53.5083 18.78 53.8322 18.0382 53.8322 17.082C53.8322 16.1093 53.5083 15.3674 52.8594 14.8564C52.211 14.3288 51.2634 14.065 50.0181 14.065H46.6387V20.0742H50.0181Z" fill="#81818B"/>
<path d="M63.2451 16.562C63.7223 15.919 64.3628 15.4326 65.1645 15.1029C65.984 14.7732 66.9222 14.6084 67.9806 14.6084V18.1694C67.5369 18.1364 67.2382 18.1199 67.0844 18.1199C65.9409 18.1199 65.0453 18.4332 64.3969 19.0596C63.748 19.6696 63.4236 20.5928 63.4236 21.8292V28.1106H59.4304V14.8062H63.2451V16.562Z" fill="#81818B"/>
<path d="M75.5038 28.3081C74.0533 28.3081 72.7476 28.0199 71.5873 27.4427C70.4439 26.8494 69.5477 26.033 68.8993 24.9944C68.251 23.9559 67.9265 22.7771 67.9265 21.4583C67.9265 20.1394 68.251 18.9607 68.8993 17.922C69.5477 16.8834 70.4439 16.0757 71.5873 15.4986C72.7476 14.9051 74.0533 14.6084 75.5038 14.6084C76.9544 14.6084 78.2517 14.9051 79.3951 15.4986C80.5386 16.0757 81.4348 16.8834 82.0837 17.922C82.7315 18.9607 83.056 20.1394 83.056 21.4583C83.056 22.7771 82.7315 23.9559 82.0837 24.9944C81.4348 26.033 80.5386 26.8494 79.3951 27.4427C78.2517 28.0199 76.9544 28.3081 75.5038 28.3081ZM75.5038 25.1428C76.5281 25.1428 77.3644 24.8135 78.0128 24.1537C78.6785 23.478 79.0108 22.5796 79.0108 21.4583C79.0108 20.3373 78.6785 19.447 78.0128 18.7876C77.3644 18.1116 76.5281 17.7737 75.5038 17.7737C74.4801 17.7737 73.6354 18.1116 72.9697 18.7876C72.304 19.447 71.9711 20.3373 71.9711 21.4583C71.9711 22.5796 72.304 23.478 72.9697 24.1537C73.6354 24.8135 74.4801 25.1428 75.5038 25.1428Z" fill="#81818B"/>
<path d="M101.163 10.8008V28.1113H97.7581L88.8231 17.6013V28.1113H84.7271V10.8008H88.1574L97.0666 21.3107V10.8008H101.163Z" fill="#81818B"/>
<path d="M109.396 14.6084C111.529 14.6084 113.168 15.1029 114.311 16.0922C115.455 17.0648 116.027 18.5403 116.027 20.5186V28.1106H112.289V26.4536C111.538 27.6901 110.139 28.3081 108.091 28.3081C107.032 28.3081 106.11 28.1353 105.325 27.789C104.558 27.4427 103.969 26.9649 103.559 26.3546C103.15 25.7448 102.945 25.0522 102.945 24.2774C102.945 23.041 103.423 22.0683 104.378 21.3594C105.351 20.6505 106.845 20.2961 108.859 20.2961H112.033C112.033 19.4553 111.769 18.8123 111.239 18.3672C110.71 17.9056 109.917 17.6748 108.859 17.6748C108.125 17.6748 107.399 17.7902 106.683 18.021C105.983 18.2353 105.385 18.5321 104.89 18.9112L103.457 16.2157C104.208 15.7047 105.103 15.3091 106.144 15.0288C107.203 14.7485 108.287 14.6084 109.396 14.6084ZM109.089 25.7118C109.772 25.7118 110.378 25.5634 110.906 25.2666C111.435 24.9532 111.811 24.5001 112.033 23.9064V22.5466H109.294C107.655 22.5466 106.836 23.0657 106.836 24.1043C106.836 24.599 107.032 24.9944 107.425 25.2913C107.834 25.5717 108.389 25.7118 109.089 25.7118Z" fill="#81818B"/>
<path d="M127.244 27.4683C126.852 27.7486 126.365 27.963 125.785 28.1114C125.222 28.2429 124.624 28.3089 123.993 28.3089C122.355 28.3089 121.083 27.9053 120.179 27.0976C119.291 26.2895 118.847 25.1024 118.847 23.5365V18.0713H116.723V15.1038H118.847V11.8643H122.841V15.1038H126.271V18.0713H122.841V23.487C122.841 24.0474 122.986 24.4844 123.276 24.7977C123.583 25.0942 124.01 25.2426 124.556 25.2426C125.188 25.2426 125.725 25.0777 126.169 24.7483L127.244 27.4683Z" fill="#81818B"/>
<path d="M142.082 14.8066V28.111H138.293V26.5282C137.763 27.105 137.132 27.5503 136.398 27.8637C135.664 28.1605 134.871 28.3085 134.017 28.3085C132.208 28.3085 130.775 27.806 129.716 26.8003C128.658 25.7947 128.129 24.3026 128.129 22.3244V14.8066H132.123V21.7554C132.123 23.8985 133.053 24.9701 134.913 24.9701C135.869 24.9701 136.637 24.6737 137.217 24.0799C137.797 23.4701 138.087 22.5718 138.087 21.3846V14.8066H142.082Z" fill="#81818B"/>
<path d="M148.316 16.562C148.793 15.919 149.434 15.4326 150.236 15.1029C151.055 14.7732 151.994 14.6084 153.052 14.6084V18.1694C152.608 18.1364 152.309 18.1199 152.156 18.1199C151.012 18.1199 150.116 18.4332 149.468 19.0596C148.819 19.6696 148.495 20.5928 148.495 21.8292V28.1106H144.501V14.8062H148.316V16.562Z" fill="#81818B"/>
<path d="M167.513 21.508C167.513 21.557 167.488 21.9034 167.436 22.5466H157.017C157.204 23.3708 157.648 24.0218 158.348 24.5001C159.048 24.9779 159.918 25.2171 160.959 25.2171C161.676 25.2171 162.307 25.1181 162.853 24.9202C163.417 24.7062 163.938 24.3764 164.415 23.9311L166.54 26.1567C165.243 27.5911 163.348 28.3081 160.856 28.3081C159.304 28.3081 157.93 28.0199 156.735 27.4427C155.54 26.8494 154.619 26.033 153.97 24.9944C153.321 23.9559 152.998 22.7771 152.998 21.4583C152.998 20.1559 153.313 18.9854 153.945 17.9468C154.593 16.8917 155.472 16.0757 156.581 15.4986C157.708 14.9051 158.962 14.6084 160.345 14.6084C161.693 14.6084 162.913 14.8886 164.006 15.4491C165.098 16.0097 165.951 16.8175 166.566 17.8726C167.197 18.9112 167.513 20.1229 167.513 21.508ZM160.37 17.5264C159.466 17.5264 158.706 17.7737 158.092 18.2683C157.477 18.7629 157.102 19.4388 156.966 20.2961H163.75C163.613 19.4553 163.237 18.7876 162.623 18.293C162.009 17.7819 161.258 17.5264 160.37 17.5264Z" fill="#81818B"/>
<path fill-rule="evenodd" clip-rule="evenodd" d="M19.7479 1.16031C19.1394 0.820263 18.3891 0.820263 17.7807 1.16031C13.4587 3.57536 10.5436 8.09398 10.5436 13.2726C10.5436 14.0106 10.6029 14.7353 10.7169 15.4424C7.74167 14.4664 4.52016 14.8215 1.88886 16.2861C1.27981 16.6252 0.904644 17.2528 0.905274 17.9318C0.908372 21.5142 2.83491 25.0057 6.28521 26.9298C7.97792 27.874 9.82544 28.3226 11.6478 28.3234C11.3706 29.0825 11.2197 29.8989 11.2197 30.7494C11.2197 34.7744 14.5974 38.0367 18.764 38.0367C22.9308 38.0367 26.3082 34.7744 26.3082 30.7494C26.3082 29.8968 26.1567 29.0788 25.8784 28.3185C27.5922 28.2661 29.3183 27.8167 30.9078 26.9298C34.3584 25.0057 36.2847 21.5142 36.2873 17.932C36.2883 17.2529 35.913 16.6253 35.304 16.2863C32.7766 14.8793 29.7041 14.4962 26.829 15.3334C26.9318 14.6609 26.9848 13.9728 26.9848 13.2726C26.9848 8.09398 24.07 3.57536 19.7479 1.16031ZM14.4723 13.2726C14.4723 9.90975 16.1579 6.92544 18.7643 5.06783C21.3706 6.92544 23.0562 9.90975 23.0562 13.2726C23.0562 16.6354 21.3706 19.6197 18.7643 21.4772C16.1579 19.6197 14.4723 16.6354 14.4723 13.2726ZM26.5114 19.5745C28.3254 18.5627 30.4216 18.4451 32.2527 19.0852C31.9114 20.9371 30.7575 22.6316 28.9435 23.6434C27.1294 24.6552 25.0333 24.7727 23.2022 24.1328C23.5437 22.2807 24.6974 20.5862 26.5114 19.5745ZM4.94037 19.0851C6.77136 18.4449 8.86748 18.5626 10.6815 19.5744C12.4956 20.586 13.6492 22.2807 13.9908 24.1324C12.1597 24.7727 10.0636 24.6552 8.24955 23.6434C6.43552 22.6316 5.28194 20.937 4.94037 19.0851ZM15.1484 30.7494C15.1484 28.8207 16.7672 27.2568 18.764 27.2568C20.7608 27.2568 22.3797 28.8207 22.3797 30.7494C22.3797 32.6782 20.7608 34.242 18.764 34.242C16.7672 34.242 15.1484 32.6782 15.1484 30.7494Z" fill="#81818B"/>
</svg>
