<svg width="164" height="32" viewBox="0 0 164 32" fill="none" xmlns="http://www.w3.org/2000/svg">
<path d="M52.8865 27.8315C50.5297 27.8315 48.4465 27.3566 46.6369 26.4078C44.8267 25.437 43.4275 24.0672 42.4384 22.2988C41.4499 20.53 40.9553 18.4486 40.9553 16.0544C40.9553 13.6601 41.4499 11.5787 42.4384 9.81006C43.4275 8.01976 44.8267 6.65014 46.6369 5.70105C48.4465 4.73043 50.5297 4.24512 52.8865 4.24512C54.4861 4.24512 55.8958 4.41768 57.1164 4.76277C58.358 5.08632 59.4941 5.60398 60.5252 6.31577V11.0071C59.5996 10.2306 58.537 9.66984 57.3374 9.3247C56.1588 8.95804 54.8122 8.77471 53.297 8.77471C51.8874 8.77471 50.6137 9.07669 49.4776 9.6806C48.3625 10.263 47.4784 11.1042 46.8264 12.2042C46.1738 13.3043 45.8478 14.5876 45.8478 16.0544C45.8478 17.5427 46.1423 18.8476 46.7314 19.9692C47.3419 21.0693 48.194 21.9213 49.2881 22.5252C50.3822 23.1292 51.6454 23.4311 53.076 23.4311C54.3806 23.4311 55.5167 23.1939 56.4848 22.7193V18.3515H52.918V14.7278H61.1248V25.6312C59.0416 27.0979 56.2958 27.8315 52.8865 27.8315Z" fill="#81818B"/>
<path d="M62.2332 11.8158H66.8416V14.0482C67.4522 13.2933 68.3043 12.7217 69.3984 12.3335C70.4925 11.9236 71.7346 11.7188 73.1232 11.7188V15.4395C71.6711 15.4395 70.3875 15.6659 69.2724 16.1189C68.1777 16.5718 67.4202 17.2621 66.9996 18.1895V27.3459H62.2332V11.8158Z" fill="#81818B"/>
<path d="M82.2829 27.8319C79.3786 27.8319 77.0954 27.1197 75.4332 25.696C73.7705 24.2514 72.9395 22.2344 72.9395 19.6461C72.9395 17.0793 73.676 15.0518 75.1492 13.5635C76.6433 12.0752 78.7685 11.3311 81.5253 11.3311C83.335 11.3311 84.8706 11.6762 86.1338 12.3664C87.3959 13.0566 88.354 14.0164 89.006 15.2459C89.6586 16.4538 89.9846 17.8235 89.9846 19.3549V21.3285H77.4849C77.8214 23.3129 79.6311 24.3053 82.9139 24.3053C83.882 24.3053 84.8816 24.2189 85.9127 24.0461C86.9438 23.8737 87.8384 23.6364 88.596 23.3344V26.7642C87.8594 27.0873 86.9123 27.3465 85.7547 27.5407C84.5976 27.7345 83.44 27.8319 82.2829 27.8319ZM85.4707 18.1578C85.4077 17.1224 85.0286 16.3244 84.3346 15.7636C83.64 15.1812 82.6824 14.89 81.4618 14.89C80.2627 14.89 79.3156 15.1812 78.621 15.7636C77.9269 16.346 77.5479 17.144 77.4849 18.1578H85.4707Z" fill="#81818B"/>
<path d="M99.7543 27.8319C96.8505 27.8319 94.5673 27.1197 92.9046 25.696C91.2425 24.2514 90.4109 22.2344 90.4109 19.6461C90.4109 17.0793 91.1475 15.0518 92.6206 13.5635C94.1148 12.0752 96.24 11.3311 98.9967 11.3311C100.806 11.3311 102.343 11.6762 103.606 12.3664C104.868 13.0566 105.825 14.0164 106.477 15.2459C107.13 16.4538 107.456 17.8235 107.456 19.3549V21.3285H94.9563C95.2929 23.3129 97.1031 24.3053 100.386 24.3053C101.354 24.3053 102.354 24.2189 103.384 24.0461C104.415 23.8737 105.31 23.6364 106.067 23.3344V26.7642C105.331 27.0873 104.384 27.3465 103.227 27.5407C102.069 27.7345 100.912 27.8319 99.7543 27.8319ZM102.943 18.1578C102.879 17.1224 102.501 16.3244 101.807 15.7636C101.111 15.1812 100.154 14.89 98.9337 14.89C97.7341 14.89 96.7875 15.1812 96.093 15.7636C95.3984 16.346 95.0199 17.144 94.9563 18.1578H102.943Z" fill="#81818B"/>
<path d="M108.514 11.8164H113.122V13.7253C113.817 12.9272 114.637 12.3341 115.585 11.9458C116.553 11.536 117.563 11.3311 118.615 11.3311C120.678 11.3311 122.214 11.9026 123.223 13.0458C124.254 14.1675 124.771 15.6881 124.771 17.6078V27.3465H120.004V18.1578C120.004 16.1518 119.099 15.1489 117.289 15.1489C116.49 15.1489 115.743 15.3538 115.048 15.7636C114.353 16.1518 113.764 16.7342 113.28 17.5107V27.3465H108.514V11.8164Z" fill="#81818B"/>
<path d="M128.975 9.422C128.239 9.422 127.619 9.17399 127.114 8.67787C126.608 8.18179 126.356 7.55626 126.356 6.80131C126.356 6.06799 126.608 5.45326 127.114 4.95714C127.619 4.43949 128.239 4.18066 128.975 4.18066C129.712 4.18066 130.333 4.43949 130.838 4.95714C131.343 5.45326 131.595 6.06799 131.595 6.80131C131.595 7.55626 131.343 8.18179 130.838 8.67787C130.333 9.17399 129.712 9.422 128.975 9.422ZM126.576 11.8162H131.375V27.3463H126.576V11.8162Z" fill="#81818B"/>
<path d="M139.503 27.8319C138.367 27.8319 137.147 27.702 135.842 27.4434C134.559 27.2062 133.548 26.8611 132.812 26.4082V22.5903C133.653 23.108 134.664 23.5286 135.842 23.8521C137.021 24.1755 138.115 24.3372 139.125 24.3372C139.988 24.3372 140.619 24.2619 141.019 24.111C141.418 23.9599 141.618 23.6795 141.618 23.2698C141.618 22.9462 141.503 22.6874 141.271 22.4932C141.04 22.2776 140.682 22.0942 140.198 21.9432C139.735 21.7706 138.956 21.5226 137.862 21.1991C136.579 20.8108 135.568 20.4226 134.832 20.0343C134.116 19.6245 133.569 19.1176 133.191 18.5137C132.833 17.9097 132.654 17.1332 132.654 16.1842C132.654 14.5664 133.274 13.3585 134.517 12.5605C135.779 11.7409 137.483 11.3311 139.63 11.3311C140.682 11.3311 141.766 11.4496 142.881 11.6869C144.017 11.9026 144.891 12.1938 145.501 12.5605V16.2812C144.891 15.8714 144.091 15.5371 143.102 15.2783C142.134 15.0194 141.187 14.89 140.261 14.89C139.398 14.89 138.725 14.9763 138.241 15.1489C137.778 15.3214 137.546 15.6449 137.546 16.1195C137.546 16.5293 137.767 16.842 138.209 17.0578C138.672 17.2734 139.524 17.5431 140.766 17.8666L141.398 18.0283C142.723 18.395 143.754 18.8048 144.49 19.2579C145.227 19.6892 145.743 20.2176 146.038 20.8432C146.353 21.4471 146.511 22.2128 146.511 23.1403C146.511 24.564 145.911 25.707 144.712 26.57C143.512 27.4109 141.776 27.8319 139.503 27.8319Z" fill="#81818B"/>
<path d="M147.613 3.43652H152.379V13.5957C153.095 12.8408 153.905 12.28 154.809 11.9133C155.715 11.525 156.683 11.3309 157.714 11.3309C159.776 11.3309 161.312 11.9025 162.322 13.0457C163.353 14.1673 163.869 15.688 163.869 17.6077V27.3464H159.103V18.1577C159.103 16.1517 158.198 15.1487 156.388 15.1487C155.588 15.1487 154.842 15.3537 154.147 15.7635C153.452 16.1517 152.863 16.7341 152.379 17.5106V27.3464H147.613V3.43652Z" fill="#81818B"/>
<path fill-rule="evenodd" clip-rule="evenodd" d="M24.6772 8.01372C24.6772 12.1235 21.4271 15.4551 17.4175 15.4551C13.408 15.4551 10.1576 12.1235 10.1576 8.01372C10.1576 3.90391 13.408 0.572266 17.4175 0.572266C21.4271 0.572266 24.6772 3.90391 24.6772 8.01372ZM0.530291 14.9143C8.43983 14.3678 15.3332 20.4378 15.9754 28.5623C16.0419 29.4041 16.0387 30.2351 15.9707 31.0499C8.0612 31.5964 1.1678 25.5263 0.525671 17.4019C0.459206 16.5601 0.462356 15.7289 0.530291 14.9143ZM21.0883 30.7654C29.0146 30.107 34.9363 23.0415 34.4034 14.9343C33.6086 14.8646 32.798 14.8613 31.9764 14.9295C24.0501 15.5877 18.1283 22.6534 18.6614 30.7607C19.4561 30.8305 20.267 30.8336 21.0883 30.7654Z" fill="#81818B"/>
</svg>
