<svg width="160" height="35" viewBox="0 0 160 35" fill="none" xmlns="http://www.w3.org/2000/svg">
<path fill-rule="evenodd" clip-rule="evenodd" d="M6.59543 9.23585C9.33578 5.73363 13.724 3.46468 18.6699 3.46468C23.6449 3.46468 28.0554 5.7604 30.7925 9.29775C30.676 9.41157 30.5699 9.52954 30.4739 9.64735C29.9725 10.2642 29.5953 11.0588 29.2931 11.8657C28.6845 13.4885 28.2203 15.6083 27.7905 17.5932L27.7523 17.7717C27.3235 19.753 26.9249 21.5957 26.443 22.9636C26.2264 23.5781 26.0211 24.0126 25.839 24.2908C25.649 24.0103 25.4335 23.5706 25.2053 22.9472C24.6899 21.5401 24.2563 19.6261 23.7968 17.5824L23.7819 17.5155V17.5154C23.3403 15.5524 22.8718 13.4697 22.2877 11.8753C21.9943 11.0745 21.6342 10.2878 21.1633 9.67669C20.7011 9.07693 19.9318 8.40005 18.8066 8.40005C17.6885 8.40005 16.9157 9.06958 16.4468 9.66262C15.9668 10.2698 15.5926 11.0532 15.2843 11.8544C14.6634 13.468 14.1559 15.5786 13.6835 17.5663L13.6347 17.7717C13.1669 19.7407 12.7296 21.5815 12.2332 22.9521C12.0438 23.4754 11.865 23.8736 11.7031 24.1581C11.5449 23.875 11.3706 23.4794 11.1862 22.9605C10.7101 21.6191 10.2929 19.8298 9.84487 17.908L9.76643 17.5716C9.30223 15.5827 8.7986 13.4683 8.16891 11.8497C7.85606 11.0455 7.47339 10.2582 6.97821 9.64813C6.86607 9.51006 6.73865 9.36988 6.59543 9.23585ZM4.93691 11.925C5.06742 12.1699 5.2055 12.4734 5.34824 12.8403C5.8933 14.2414 6.35504 16.153 6.83053 18.1903L6.92309 18.5873C7.356 20.4461 7.80634 22.3798 8.3368 23.8736C8.61894 24.6682 8.95966 25.4464 9.39783 26.0512C9.81221 26.6232 10.5556 27.3621 11.6987 27.3621C12.8385 27.3621 13.5836 26.6268 14.0008 26.0574C14.4428 25.4539 14.7891 24.6766 15.0769 23.8816C15.6286 22.3581 16.0985 20.3791 16.5481 18.4852V18.4851L16.6168 18.1957C17.1013 16.1572 17.5676 14.2417 18.1087 12.8356C18.3593 12.1841 18.594 11.7303 18.7983 11.4487C18.9919 11.7279 19.2131 12.1745 19.4477 12.8147C19.9632 14.2219 20.3964 16.1359 20.856 18.1795L20.8711 18.2465C21.3126 20.2095 21.7811 22.2923 22.3651 23.8865C22.6586 24.6877 23.0186 25.4743 23.4896 26.0853C23.9518 26.6852 24.7211 27.3621 25.846 27.3621C26.977 27.3621 27.7435 26.679 28.2002 26.0738C28.664 25.4597 29.0128 24.6704 29.2945 23.8705C29.836 22.3341 30.2665 20.3406 30.677 18.4441V18.4441L30.7358 18.1688C31.1779 16.1276 31.6021 14.2211 32.126 12.8244C32.2394 12.5205 32.3512 12.2614 32.4578 12.0438C33.2605 13.7919 33.7057 15.7221 33.7057 17.751C33.7057 25.6411 26.9743 32.0375 18.6699 32.0375C10.3658 32.0375 3.63391 25.6411 3.63391 17.751C3.63391 15.676 4.09953 13.7042 4.93691 11.925ZM18.6699 0.607422C8.70493 0.607422 0.626709 8.28287 0.626709 17.751C0.626709 27.2192 8.70493 34.8945 18.6699 34.8945C28.6351 34.8945 36.713 27.2192 36.713 17.751C36.713 8.28287 28.6351 0.607422 18.6699 0.607422ZM19.0137 11.2095C19.0137 11.2099 19.0102 11.2126 19.0031 11.2165C19.0101 11.2112 19.0137 11.2092 19.0137 11.2095ZM18.598 11.2115C18.5911 11.2074 18.5876 11.2047 18.5876 11.2043C18.5876 11.2039 18.5911 11.206 18.598 11.2115ZM25.6174 24.562C25.6174 24.562 25.6206 24.5589 25.6272 24.5549C25.6206 24.5602 25.6174 24.5624 25.6174 24.562ZM26.0546 24.5505C26.0616 24.5545 26.0653 24.5571 26.0653 24.5576C26.0653 24.558 26.0616 24.5558 26.0546 24.5505ZM11.3905 24.5877C11.3905 24.5872 11.3948 24.5832 11.4035 24.5775C11.3949 24.585 11.3905 24.5881 11.3905 24.5877ZM11.9995 24.5801C12.0081 24.5859 12.0124 24.5899 12.0124 24.5903C12.0124 24.5908 12.008 24.5881 11.9995 24.5801Z" fill="#81818B"/>
<path d="M46.6756 27.9003L42.3003 13.6797H46.1328L48.7279 23.915L51.745 13.6797H56.0301L59.0478 23.915L61.6728 13.6797H65.5053L61.0995 27.9003H57.0864L53.8876 17.2635L50.6893 27.9003H46.6756Z" fill="#81818B"/>
<path d="M71.1286 28.2448C69.8413 28.2448 68.785 28.0532 67.9602 27.671C67.136 27.2697 66.5223 26.7441 66.1196 26.0942C65.7174 25.4443 65.5164 24.7276 65.5164 23.944C65.5164 22.6252 66.0592 21.5548 67.1454 20.7329C68.2317 19.911 69.8618 19.5001 72.0342 19.5001H75.8363V19.156C75.8363 18.1812 75.5444 17.4645 74.9611 17.0057C74.3778 16.547 73.6533 16.3177 72.7887 16.3177C72.0038 16.3177 71.3197 16.4992 70.7364 16.8624C70.1532 17.2064 69.7909 17.7225 69.6502 18.4106H65.8781C65.9789 17.3785 66.3411 16.4801 66.9643 15.7156C67.6085 14.951 68.4333 14.368 69.4386 13.9667C70.4451 13.5462 71.5712 13.3359 72.8186 13.3359C74.9511 13.3359 76.6306 13.8424 77.8581 14.8554C79.085 15.8685 79.6987 17.3021 79.6987 19.156V27.9006H76.4091L76.0473 25.6071C75.6048 26.3716 74.9811 27.0021 74.1768 27.4993C73.3919 27.9961 72.376 28.2448 71.1286 28.2448ZM72.0038 25.3775C73.1105 25.3775 73.9652 25.0333 74.5684 24.3453C75.1921 23.6574 75.5848 22.8066 75.746 21.7937H72.4563C71.4305 21.7937 70.6965 21.9753 70.2534 22.3384C69.8114 22.6823 69.5898 23.1128 69.5898 23.6286C69.5898 24.183 69.8114 24.613 70.2534 24.9187C70.6965 25.2244 71.2793 25.3775 72.0038 25.3775Z" fill="#81818B"/>
<path d="M85.7788 27.9003L80.2874 13.6797H84.3304L88.1324 24.4313L91.9345 13.6797H95.978L90.4561 27.9003H85.7788Z" fill="#81818B"/>
<path d="M103.742 28.2448C102.234 28.2448 100.896 27.9387 99.7292 27.3272C98.5626 26.7154 97.6476 25.8553 96.9834 24.7466C96.3193 23.6383 95.988 22.3575 95.988 20.9049C95.988 19.4332 96.3099 18.1239 96.953 16.9771C97.6171 15.8303 98.5222 14.9415 99.6693 14.3107C100.835 13.6609 102.204 13.3359 103.773 13.3359C105.241 13.3359 106.539 13.6418 107.666 14.2534C108.792 14.865 109.667 15.706 110.291 16.7764C110.934 17.8276 111.257 19.0031 111.257 20.3028C111.257 20.5131 111.246 20.7329 111.226 20.9622C111.226 21.1917 111.216 21.4305 111.196 21.679H99.82C99.9003 22.7876 100.303 23.6574 101.027 24.2883C101.771 24.9187 102.667 25.2342 103.713 25.2342C104.497 25.2342 105.151 25.0718 105.674 24.7466C106.217 24.4028 106.619 23.9631 106.881 23.4278H110.804C110.522 24.3263 110.049 25.1483 109.386 25.8938C108.741 26.6198 107.937 27.1932 106.971 27.6139C106.026 28.0342 104.949 28.2448 103.742 28.2448ZM103.773 16.3177C102.828 16.3177 101.992 16.5757 101.268 17.0917C100.544 17.5887 100.081 18.3533 99.8799 19.3854H107.333C107.273 18.4488 106.911 17.7034 106.247 17.1491C105.583 16.5948 104.759 16.3177 103.773 16.3177Z" fill="#81818B"/>
<path d="M113.298 27.9007V7.25781H117.16V27.9007H113.298Z" fill="#81818B"/>
<path d="M127.171 28.2448C125.663 28.2448 124.325 27.9387 123.158 27.3272C121.992 26.7154 121.077 25.8553 120.413 24.7466C119.749 23.6383 119.417 22.3575 119.417 20.9049C119.417 19.4332 119.739 18.1239 120.382 16.9771C121.046 15.8303 121.951 14.9415 123.099 14.3107C124.265 13.6609 125.633 13.3359 127.202 13.3359C128.67 13.3359 129.968 13.6418 131.095 14.2534C132.221 14.865 133.097 15.706 133.72 16.7764C134.363 17.8276 134.686 19.0031 134.686 20.3028C134.686 20.5131 134.675 20.7329 134.655 20.9622C134.655 21.1917 134.645 21.4305 134.625 21.679H123.249C123.33 22.7876 123.732 23.6574 124.456 24.2883C125.2 24.9187 126.096 25.2342 127.142 25.2342C127.926 25.2342 128.58 25.0718 129.103 24.7466C129.646 24.4028 130.048 23.9631 130.31 23.4278H134.233C133.951 24.3263 133.478 25.1483 132.815 25.8938C132.171 26.6198 131.366 27.1932 130.4 27.6139C129.455 28.0342 128.379 28.2448 127.171 28.2448ZM127.202 16.3177C126.257 16.3177 125.422 16.5757 124.697 17.0917C123.973 17.5887 123.511 18.3533 123.309 19.3854H130.762C130.702 18.4488 130.34 17.7034 129.676 17.1491C129.012 16.5948 128.188 16.3177 127.202 16.3177Z" fill="#81818B"/>
<path d="M142.913 28.2448C141.585 28.2448 140.418 28.0439 139.413 27.6427C138.406 27.2219 137.602 26.6486 136.998 25.9221C136.395 25.1961 136.033 24.3551 135.912 23.3995H139.804C139.925 23.9533 140.248 24.4316 140.77 24.8329C141.313 25.2151 142.007 25.4063 142.852 25.4063C143.697 25.4063 144.311 25.2439 144.693 24.9187C145.095 24.594 145.296 24.221 145.296 23.8007C145.296 23.1889 145.015 22.7779 144.452 22.5677C143.888 22.3384 143.104 22.1187 142.098 21.9084C141.455 21.7746 140.801 21.6121 140.137 21.421C139.473 21.2299 138.859 20.9909 138.296 20.7043C137.753 20.3984 137.31 20.0161 136.968 19.5574C136.626 19.0795 136.455 18.4966 136.455 17.8085C136.455 16.547 136.978 15.4862 138.025 14.6261C139.09 13.766 140.579 13.3359 142.49 13.3359C144.261 13.3359 145.669 13.7277 146.715 14.5114C147.781 15.2951 148.414 16.375 148.616 17.7512H144.965C144.743 16.6999 143.908 16.1743 142.46 16.1743C141.736 16.1743 141.173 16.3081 140.77 16.5757C140.388 16.8433 140.197 17.1777 140.197 17.5791C140.197 17.9997 140.489 18.3342 141.072 18.5826C141.656 18.8311 142.43 19.0604 143.395 19.2707C144.441 19.5001 145.397 19.7581 146.262 20.0448C147.147 20.3124 147.851 20.7234 148.375 21.2777C148.897 21.8128 149.159 22.5868 149.159 23.5998C149.179 24.4794 148.937 25.2722 148.435 25.9796C147.932 26.6866 147.208 27.2409 146.262 27.6427C145.317 28.0439 144.2 28.2448 142.913 28.2448Z" fill="#81818B"/>
<path d="M157.559 28.2448C156.232 28.2448 155.065 28.0439 154.059 27.6427C153.053 27.2219 152.249 26.6486 151.645 25.9221C151.042 25.1961 150.679 24.3551 150.559 23.3995H154.451C154.572 23.9533 154.894 24.4316 155.417 24.8329C155.96 25.2151 156.654 25.4063 157.499 25.4063C158.344 25.4063 158.958 25.2439 159.34 24.9187C159.742 24.594 159.943 24.221 159.943 23.8007C159.943 23.1889 159.662 22.7779 159.098 22.5677C158.535 22.3384 157.751 22.1187 156.745 21.9084C156.101 21.7746 155.447 21.6121 154.783 21.421C154.12 21.2299 153.506 20.9909 152.943 20.7043C152.4 20.3984 151.957 20.0161 151.615 19.5574C151.273 19.0795 151.102 18.4966 151.102 17.8085C151.102 16.547 151.625 15.4862 152.671 14.6261C153.737 13.766 155.226 13.3359 157.137 13.3359C158.907 13.3359 160.315 13.7277 161.361 14.5114C162.427 15.2951 163.061 16.375 163.263 17.7512H159.611C159.39 16.6999 158.555 16.1743 157.107 16.1743C156.382 16.1743 155.819 16.3081 155.417 16.5757C155.035 16.8433 154.844 17.1777 154.844 17.5791C154.844 17.9997 155.135 18.3342 155.719 18.5826C156.302 18.8311 157.076 19.0604 158.042 19.2707C159.088 19.5001 160.044 19.7581 160.909 20.0448C161.794 20.3124 162.498 20.7234 163.021 21.2777C163.544 21.8128 163.806 22.5868 163.806 23.5998C163.826 24.4794 163.584 25.2722 163.081 25.9796C162.578 26.6866 161.854 27.2409 160.909 27.6427C159.963 28.0439 158.847 28.2448 157.559 28.2448Z" fill="#81818B"/>
</svg>
