<svg width="140" height="40" viewBox="0 0 148 40" fill="none" xmlns="http://www.w3.org/2000/svg">
<path d="M57.6049 17.3888C57.2583 16.7502 56.7565 16.2668 56.0997 15.9384C55.4611 15.5918 54.704 15.4184 53.8283 15.4184C52.3139 15.4184 51.1008 15.9202 50.1885 16.9236C49.2762 17.9088 48.8202 19.2316 48.8202 20.8918C48.8202 22.6614 49.2946 24.0481 50.2432 25.0515C51.2102 26.0367 52.5329 26.5293 54.2114 26.5293C55.3608 26.5293 56.3278 26.2374 57.1123 25.6536C57.9151 25.0697 58.4988 24.2305 58.8638 23.1358H52.9252V19.6876H63.1056V24.0389C62.759 25.2066 62.166 26.2922 61.3268 27.2956C60.5058 28.299 59.4567 29.1109 58.1796 29.7312C56.9025 30.3515 55.4611 30.6617 53.8556 30.6617C51.9582 30.6617 50.2614 30.2512 48.7654 29.4302C47.2876 28.591 46.1291 27.4324 45.2899 25.9546C44.4688 24.4768 44.0583 22.7892 44.0583 20.8918C44.0583 18.9943 44.4688 17.3067 45.2899 15.8289C46.1291 14.3329 47.2876 13.1743 48.7654 12.3533C50.2432 11.5141 51.9308 11.0945 53.8283 11.0945C56.1271 11.0945 58.061 11.651 59.63 12.7638C61.2173 13.8767 62.2664 15.4184 62.7772 17.3888H57.6049ZM70.3775 17.7993C70.9248 16.9601 71.609 16.3033 72.43 15.8289C73.251 15.3363 74.1632 15.09 75.1666 15.09V20.0434H73.8804C72.7128 20.0434 71.8371 20.2989 71.2532 20.8097C70.6693 21.3023 70.3775 22.178 70.3775 23.4369V30.5249H65.6978V15.2542H70.3775V17.7993ZM84.3546 30.7438C82.8585 30.7438 81.5085 30.4246 80.3043 29.786C79.1184 29.1474 78.1788 28.2352 77.4856 27.0493C76.8104 25.8634 76.473 24.4768 76.473 22.8895C76.473 21.3205 76.8196 19.9431 77.5129 18.7572C78.2061 17.553 79.1549 16.6317 80.3591 15.9931C81.5632 15.3545 82.9132 15.0353 84.4093 15.0353C85.9054 15.0353 87.2555 15.3545 88.4596 15.9931C89.6638 16.6317 90.6124 17.553 91.3058 18.7572C91.999 19.9431 92.3457 21.3205 92.3457 22.8895C92.3457 24.4586 91.9899 25.8451 91.2784 27.0493C90.5851 28.2352 89.6272 29.1474 88.4049 29.786C87.2007 30.4246 85.8506 30.7438 84.3546 30.7438ZM84.3546 26.6935C85.2486 26.6935 86.0057 26.3651 86.626 25.7083C87.2645 25.0515 87.5839 24.1119 87.5839 22.8895C87.5839 21.6672 87.2737 20.7276 86.6534 20.0708C86.0513 19.414 85.3033 19.0856 84.4093 19.0856C83.4971 19.0856 82.74 19.414 82.1379 20.0708C81.5358 20.7094 81.2348 21.6489 81.2348 22.8895C81.2348 24.1119 81.5267 25.0515 82.1105 25.7083C82.7126 26.3651 83.4606 26.6935 84.3546 26.6935ZM116.749 15.2542L112.616 30.5249H107.444L105.036 20.6181L102.546 30.5249H97.4009L93.2411 15.2542H97.9208L100.083 26.1735L102.655 15.2542H107.608L110.208 26.1188L112.343 15.2542H116.749ZM126.196 19.1403H123.679V30.5249H118.999V19.1403H117.302V15.2542H118.999V14.8164C118.999 12.9372 119.537 11.5141 120.614 10.5471C121.69 9.56194 123.268 9.06934 125.348 9.06934C125.694 9.06934 125.95 9.07846 126.114 9.0967V13.0649C125.221 13.0101 124.591 13.1378 124.226 13.448C123.861 13.7582 123.679 14.3146 123.679 15.1174V15.2542H126.196V19.1403ZM143.994 15.2542L134.416 37.777H129.38L132.883 30.0049L126.671 15.2542H131.898L135.429 24.8052L138.931 15.2542H143.994Z" fill="white"/>
<path d="M23.1565 12.6316C23.1565 8.56241 26.4552 5.26367 30.5244 5.26367H37.8924V12.6316C37.8924 16.7009 34.5937 19.9996 30.5244 19.9996C26.4552 19.9996 23.1565 16.7009 23.1565 12.6316Z" fill="#FF6D35"/>
<path d="M30.5243 37.6764C26.4551 37.6764 23.1564 34.3776 23.1564 30.3084V22.9404H30.5243C34.5935 22.9404 37.8923 26.2392 37.8923 30.3084C37.8923 34.3776 34.5935 37.6764 30.5243 37.6764Z" fill="#5CC97B"/>
<path d="M20.8348 20.6519C20.8348 12.4751 14.7086 5.84668 7.15146 5.84668V30.0211C7.15146 34.1094 10.2146 37.4237 13.9932 37.4237C17.7717 37.4237 20.8348 34.1094 20.8348 30.0211V20.6519Z" fill="#3D96F4"/>
</svg>
